<svg width="197" height="41" viewBox="0 0 197 41" fill="none" xmlns="http://www.w3.org/2000/svg">
<path d="M11.04 29.132H19.32V33.128H6V8H11.04V29.132Z" fill="#231B06"/>
<path d="M41.0634 22.724C41.0634 23.444 41.0154 24.092 40.9194 24.668H26.3394C26.4594 26.108 26.9634 27.236 27.8514 28.052C28.7394 28.868 29.8314 29.276 31.1274 29.276C32.9994 29.276 34.3314 28.472 35.1234 26.864H40.5594C39.9834 28.784 38.8794 30.368 37.2474 31.616C35.6154 32.84 33.6114 33.452 31.2354 33.452C29.3154 33.452 27.5874 33.032 26.0514 32.192C24.5394 31.328 23.3514 30.116 22.4874 28.556C21.6474 26.996 21.2274 25.196 21.2274 23.156C21.2274 21.092 21.6474 19.28 22.4874 17.72C23.3274 16.16 24.5034 14.96 26.0154 14.12C27.5274 13.28 29.2674 12.86 31.2354 12.86C33.1314 12.86 34.8234 13.268 36.3114 14.084C37.8234 14.9 38.9874 16.064 39.8034 17.576C40.6434 19.064 41.0634 20.78 41.0634 22.724ZM35.8434 21.284C35.8194 19.988 35.3514 18.956 34.4394 18.188C33.5274 17.396 32.4114 17 31.0914 17C29.8434 17 28.7874 17.384 27.9234 18.152C27.0834 18.896 26.5674 19.94 26.3754 21.284H35.8434Z" fill="#231B06"/>
<path d="M43.4462 23.156C43.4462 21.092 43.8662 19.292 44.7062 17.756C45.5462 16.196 46.7102 14.996 48.1982 14.156C49.6862 13.292 51.3902 12.86 53.3102 12.86C55.7822 12.86 57.8222 13.484 59.4302 14.732C61.0622 15.956 62.1542 17.684 62.7062 19.916H57.2702C56.9822 19.052 56.4902 18.38 55.7942 17.9C55.1222 17.396 54.2822 17.144 53.2742 17.144C51.8342 17.144 50.6942 17.672 49.8542 18.728C49.0142 19.76 48.5942 21.236 48.5942 23.156C48.5942 25.052 49.0142 26.528 49.8542 27.584C50.6942 28.616 51.8342 29.132 53.2742 29.132C55.3142 29.132 56.6462 28.22 57.2702 26.396H62.7062C62.1542 28.556 61.0622 30.272 59.4302 31.544C57.7982 32.816 55.7582 33.452 53.3102 33.452C51.3902 33.452 49.6862 33.032 48.1982 32.192C46.7102 31.328 45.5462 30.128 44.7062 28.592C43.8662 27.032 43.4462 25.22 43.4462 23.156Z" fill="#231B06"/>
<path d="M65.1024 23.084C65.1024 21.068 65.4984 19.28 66.2904 17.72C67.1064 16.16 68.1984 14.96 69.5664 14.12C70.9584 13.28 72.5064 12.86 74.2104 12.86C75.6984 12.86 76.9944 13.16 78.0984 13.76C79.2264 14.36 80.1264 15.116 80.7984 16.028V13.184H85.8744V33.128H80.7984V30.212C80.1504 31.148 79.2504 31.928 78.0984 32.552C76.9704 33.152 75.6624 33.452 74.1744 33.452C72.4944 33.452 70.9584 33.02 69.5664 32.156C68.1984 31.292 67.1064 30.08 66.2904 28.52C65.4984 26.936 65.1024 25.124 65.1024 23.084ZM80.7984 23.156C80.7984 21.932 80.5584 20.888 80.0784 20.024C79.5984 19.136 78.9504 18.464 78.1344 18.008C77.3184 17.528 76.4424 17.288 75.5064 17.288C74.5704 17.288 73.7064 17.516 72.9144 17.972C72.1224 18.428 71.4744 19.1 70.9704 19.988C70.4904 20.852 70.2504 21.884 70.2504 23.084C70.2504 24.284 70.4904 25.34 70.9704 26.252C71.4744 27.14 72.1224 27.824 72.9144 28.304C73.7304 28.784 74.5944 29.024 75.5064 29.024C76.4424 29.024 77.3184 28.796 78.1344 28.34C78.9504 27.86 79.5984 27.188 80.0784 26.324C80.5584 25.436 80.7984 24.38 80.7984 23.156Z" fill="#231B06"/>
<path d="M95.8369 16.28C96.4849 15.224 97.3249 14.396 98.3569 13.796C99.4129 13.196 100.613 12.896 101.957 12.896V18.188H100.625C99.0409 18.188 97.8409 18.56 97.0249 19.304C96.2329 20.048 95.8369 21.344 95.8369 23.192V33.128H90.7969V13.184H95.8369V16.28Z" fill="#231B06"/>
<path d="M110.392 16.28C111.04 15.224 111.88 14.396 112.912 13.796C113.968 13.196 115.168 12.896 116.512 12.896V18.188H115.18C113.596 18.188 112.396 18.56 111.58 19.304C110.788 20.048 110.392 21.344 110.392 23.192V33.128H105.352V13.184H110.392V16.28Z" fill="#231B06"/>
<path d="M128.762 33.452C126.842 33.452 125.114 33.032 123.578 32.192C122.042 31.328 120.83 30.116 119.942 28.556C119.078 26.996 118.646 25.196 118.646 23.156C118.646 21.116 119.09 19.316 119.978 17.756C120.89 16.196 122.126 14.996 123.686 14.156C125.246 13.292 126.986 12.86 128.906 12.86C130.826 12.86 132.566 13.292 134.126 14.156C135.686 14.996 136.91 16.196 137.798 17.756C138.71 19.316 139.166 21.116 139.166 23.156C139.166 25.196 138.698 26.996 137.762 28.556C136.85 30.116 135.602 31.328 134.018 32.192C132.458 33.032 130.706 33.452 128.762 33.452ZM128.762 29.06C129.674 29.06 130.526 28.844 131.318 28.412C132.134 27.956 132.782 27.284 133.262 26.396C133.742 25.508 133.982 24.428 133.982 23.156C133.982 21.26 133.478 19.808 132.47 18.8C131.486 17.768 130.274 17.252 128.834 17.252C127.394 17.252 126.182 17.768 125.198 18.8C124.238 19.808 123.758 21.26 123.758 23.156C123.758 25.052 124.226 26.516 125.162 27.548C126.122 28.556 127.322 29.06 128.762 29.06Z" fill="#231B06"/>
<path d="M145.095 33.38C144.183 33.38 143.427 33.104 142.827 32.552C142.251 31.976 141.963 31.268 141.963 30.428C141.963 29.588 142.251 28.892 142.827 28.34C143.427 27.764 144.183 27.476 145.095 27.476C145.983 27.476 146.715 27.764 147.291 28.34C147.867 28.892 148.155 29.588 148.155 30.428C148.155 31.268 147.867 31.976 147.291 32.552C146.715 33.104 145.983 33.38 145.095 33.38Z" fill="#DEB348"/>
<path d="M159.847 33.452C158.215 33.452 156.751 33.164 155.455 32.588C154.159 31.988 153.127 31.184 152.359 30.176C151.615 29.168 151.207 28.052 151.135 26.828H156.211C156.307 27.596 156.679 28.232 157.327 28.736C157.999 29.24 158.827 29.492 159.811 29.492C160.771 29.492 161.515 29.3 162.043 28.916C162.595 28.532 162.871 28.04 162.871 27.44C162.871 26.792 162.535 26.312 161.863 26C161.215 25.664 160.171 25.304 158.731 24.92C157.243 24.56 156.019 24.188 155.059 23.804C154.123 23.42 153.307 22.832 152.611 22.04C151.939 21.248 151.603 20.18 151.603 18.836C151.603 17.732 151.915 16.724 152.539 15.812C153.187 14.9 154.099 14.18 155.275 13.652C156.475 13.124 157.879 12.86 159.487 12.86C161.863 12.86 163.759 13.46 165.175 14.66C166.591 15.836 167.371 17.432 167.515 19.448H162.691C162.619 18.656 162.283 18.032 161.683 17.576C161.107 17.096 160.327 16.856 159.343 16.856C158.431 16.856 157.723 17.024 157.219 17.36C156.739 17.696 156.499 18.164 156.499 18.764C156.499 19.436 156.835 19.952 157.507 20.312C158.179 20.648 159.223 20.996 160.639 21.356C162.079 21.716 163.267 22.088 164.203 22.472C165.139 22.856 165.943 23.456 166.615 24.272C167.311 25.064 167.671 26.12 167.695 27.44C167.695 28.592 167.371 29.624 166.723 30.536C166.099 31.448 165.187 32.168 163.987 32.696C162.811 33.2 161.431 33.452 159.847 33.452Z" fill="#231B06"/>
<path d="M170.536 23.084C170.536 21.068 170.932 19.28 171.724 17.72C172.54 16.16 173.632 14.96 175 14.12C176.392 13.28 177.94 12.86 179.644 12.86C181.132 12.86 182.428 13.16 183.532 13.76C184.66 14.36 185.56 15.116 186.232 16.028V13.184H191.308V33.128H186.232V30.212C185.584 31.148 184.684 31.928 183.532 32.552C182.404 33.152 181.096 33.452 179.608 33.452C177.928 33.452 176.392 33.02 175 32.156C173.632 31.292 172.54 30.08 171.724 28.52C170.932 26.936 170.536 25.124 170.536 23.084ZM186.232 23.156C186.232 21.932 185.992 20.888 185.512 20.024C185.032 19.136 184.384 18.464 183.568 18.008C182.752 17.528 181.876 17.288 180.94 17.288C180.004 17.288 179.14 17.516 178.348 17.972C177.556 18.428 176.908 19.1 176.404 19.988C175.924 20.852 175.684 21.884 175.684 23.084C175.684 24.284 175.924 25.34 176.404 26.252C176.908 27.14 177.556 27.824 178.348 28.304C179.164 28.784 180.028 29.024 180.94 29.024C181.876 29.024 182.752 28.796 183.568 28.34C184.384 27.86 185.032 27.188 185.512 26.324C185.992 25.436 186.232 24.38 186.232 23.156Z" fill="#231B06"/>
</svg>
